<svg width="1000" height="600" viewBox="0 0 1000 600" fill="none" xmlns="http://www.w3.org/2000/svg">
<g clip-path="url(#clip0_13_194)">
<path d="M765.623 593.215C752.821 582.358 745.044 565.207 747.084 548.511C749.123 531.815 761.754 516.466 778.139 512.92C794.524 509.375 813.201 519.189 818.178 535.252C820.917 504.284 824.073 472.018 840.479 445.645C855.334 421.766 881.064 404.679 908.949 401.622C936.834 398.566 966.193 410.111 983.584 432.199C1000.97 454.287 1005.23 486.398 993.053 511.757C984.08 530.438 967.55 544.341 950.229 555.652C894.262 591.892 827.136 606.63 761.202 597.153L765.623 593.215Z" fill="#6CCDAA"/>
<path d="M956.009 410.751C933 429.559 911.892 450.594 892.99 473.552C863.409 509.359 839.471 549.504 822.011 592.59C820.733 595.734 825.819 597.102 827.083 593.994C855.65 523.97 901.256 462.251 959.728 414.483C962.354 412.337 958.613 408.623 956.009 410.751Z" fill="white"/>
<path d="M321.916 590.265C339.501 575.353 350.182 551.797 347.381 528.864C344.58 505.932 327.23 484.85 304.726 479.98C282.221 475.111 256.568 488.591 249.733 510.653C245.971 468.118 241.636 423.801 219.102 387.578C198.699 354.78 163.359 331.311 125.059 327.113C86.7587 322.914 46.4336 338.771 22.5472 369.109C-1.33919 399.447 -7.18767 443.553 9.54173 478.383C21.8657 504.042 44.5708 523.137 68.3601 538.672C144.256 588.234 238.405 608.904 327.989 595.673" fill="#6CCDAA"/>
<path d="M60.4215 339.65C92.0239 365.483 121.016 394.375 146.978 425.908C172.944 457.409 195.804 491.363 215.237 527.293C226.1 547.449 235.858 568.184 244.468 589.407C246.223 593.724 239.238 595.604 237.502 591.334C222.252 553.918 203.384 518.092 181.17 484.37C159.063 450.77 133.762 419.401 105.62 390.705C89.7023 374.482 72.9082 359.149 55.3135 344.777C51.707 341.83 56.8449 336.727 60.4215 339.65Z" fill="white"/>
<path d="M717.816 598.687H298.276V166.686C298.276 74.775 372.784 -7.62939e-06 464.368 -7.62939e-06H551.724C643.308 -7.62939e-06 717.816 74.775 717.816 166.686V598.687Z" fill="#BEBEBE"/>
<path d="M630.46 598.687H298.276V166.687C298.184 131.468 309.297 97.14 329.995 68.6999C330.758 67.6562 331.519 66.626 332.304 65.6071C342.316 52.4292 354.23 40.8236 367.654 31.1733C368.412 30.6196 369.173 30.0756 369.946 29.5315C381.178 21.7306 393.329 15.3535 406.121 10.5454C406.88 10.2564 407.654 9.9669 408.427 9.6892C419.996 5.54578 431.989 2.70756 444.184 1.22693C444.94 1.12329 445.716 1.04218 446.492 0.961079C458.376 -0.314124 470.362 -0.314124 482.246 0.961079C483.02 1.04218 483.796 1.12328 484.561 1.22804C496.753 2.70876 508.742 5.54664 520.308 9.68926C521.082 9.96695 521.855 10.2564 522.617 10.546C535.251 15.2934 547.259 21.5753 558.372 29.2515C559.144 29.7838 559.917 30.3279 560.678 30.872C568.202 36.2622 575.27 42.2672 581.808 48.8257C587.052 54.0863 591.938 59.6938 596.434 65.6106C597.217 66.6261 597.978 67.6563 598.739 68.6983C619.438 97.1387 630.551 131.468 630.46 166.687V598.687Z" fill="#3E3E3E"/>
<path d="M603.448 405.469C613.605 405.469 621.839 397.206 621.839 387.012C621.839 376.819 613.605 368.556 603.448 368.556C593.291 368.556 585.057 376.819 585.057 387.012C585.057 397.206 593.291 405.469 603.448 405.469Z" fill="#6C63FF"/>
<path d="M683.447 585.747H669.355L662.651 531.199L683.449 531.2L683.447 585.747Z" fill="#FFB8B8"/>
<path d="M659.289 581.706H686.466V598.879H642.178C642.178 596.624 642.621 594.391 643.48 592.307C644.34 590.224 645.601 588.331 647.19 586.736C648.779 585.141 650.665 583.876 652.741 583.013C654.817 582.15 657.042 581.706 659.289 581.706Z" fill="#2F2E41"/>
<path d="M753.562 585.747H739.47L732.765 531.199L753.564 531.2L753.562 585.747Z" fill="#FFB8B8"/>
<path d="M729.404 581.706H756.581V598.879H712.293C712.293 596.624 712.735 594.391 713.595 592.307C714.455 590.224 715.716 588.331 717.305 586.736C718.894 585.141 720.78 583.876 722.856 583.013C724.932 582.15 727.157 581.706 729.404 581.706Z" fill="#2F2E41"/>
<path d="M612.756 390.669C611.742 389.17 611.068 387.466 610.782 385.677C610.495 383.888 610.602 382.058 611.097 380.316C611.591 378.574 612.46 376.961 613.642 375.592C614.825 374.223 616.292 373.131 617.94 372.393L665.844 239.89L689.415 252.8L634.72 379.424C635.772 382.286 635.742 385.435 634.635 388.276C633.528 391.117 631.422 393.451 628.714 394.837C626.007 396.223 622.887 396.564 619.946 395.796C617.005 395.028 614.446 393.203 612.756 390.669Z" fill="#FFB8B8"/>
<path d="M746.364 415.567C744.798 414.665 743.448 413.431 742.409 411.949C741.369 410.468 740.667 408.776 740.35 406.992C740.032 405.209 740.109 403.377 740.574 401.627C741.038 399.876 741.88 398.249 743.039 396.86L728.199 256.694L755.024 257.924L761.191 395.796C763.387 397.904 764.736 400.748 764.982 403.788C765.229 406.828 764.355 409.853 762.528 412.29C760.7 414.727 758.045 416.407 755.066 417.011C752.087 417.615 748.991 417.101 746.364 415.567Z" fill="#FFB8B8"/>
<path d="M703.57 215.347C719.162 215.347 731.801 202.662 731.801 187.015C731.801 171.367 719.162 158.683 703.57 158.683C687.978 158.683 675.339 171.367 675.339 187.015C675.339 202.662 687.978 215.347 703.57 215.347Z" fill="#FFB8B8"/>
<path d="M746.183 383.689H661.072L661.174 383.024C661.327 382.03 676.343 283.313 665.268 251.018C664.157 247.844 664.255 244.37 665.543 241.264C666.831 238.158 669.218 235.64 672.245 234.195C688.074 226.714 718.461 217.502 744.107 239.858C747.881 243.202 750.828 247.381 752.715 252.065C754.602 256.749 755.378 261.809 754.98 266.846L746.183 383.689Z" fill="#6C63FF"/>
<path d="M677.419 297.902L639.101 290.1L657.062 247.385C658.137 243.248 660.803 239.707 664.475 237.54C668.148 235.373 672.527 234.756 676.652 235.825C680.777 236.894 684.311 239.561 686.479 243.241C688.648 246.921 689.273 251.315 688.218 255.457L677.419 297.902Z" fill="#6C63FF"/>
<path d="M726.495 312.388L724.191 259.392C722.444 249.43 728.127 240.013 736.866 238.473C745.608 236.94 754.144 243.849 755.899 253.884L764.557 303.403L726.495 312.388Z" fill="#6C63FF"/>
<path d="M743.352 377.344C757.047 429.688 758.541 496.239 754.846 568.831L736.455 566.524L703.122 428.1L684.731 568.831L664.041 567.678C657.86 491.51 651.842 426.121 661.743 383.112L743.352 377.344Z" fill="#2F2E41"/>
<path d="M722.171 208.911C716.905 214.541 707.124 211.518 706.438 203.827C706.384 203.23 706.388 202.629 706.449 202.032C706.804 198.625 708.765 195.532 708.295 191.935C708.189 191.039 707.856 190.186 707.329 189.456C703.133 183.816 693.281 191.978 689.32 186.873C686.891 183.742 689.746 178.813 687.883 175.313C685.423 170.695 678.137 172.973 673.568 170.444C668.484 167.63 668.788 159.803 672.135 155.041C676.216 149.235 683.371 146.137 690.437 145.69C697.503 145.244 704.521 147.161 711.118 149.741C718.614 152.672 726.046 156.724 730.659 163.338C736.268 171.382 736.808 182.196 734.003 191.602C732.296 197.323 726.472 204.313 722.171 208.911Z" fill="#2F2E41"/>
<path d="M539.08 473.528H389.655C387.687 473.538 385.796 472.765 384.395 471.378C382.994 469.991 382.199 468.102 382.184 466.127V131.406C382.199 129.431 382.994 127.543 384.395 126.155C385.796 124.768 387.687 123.995 389.655 124.005H539.08C541.048 123.995 542.94 124.768 544.341 126.155C545.741 127.543 546.536 129.431 546.552 131.406V466.127C546.536 468.102 545.741 469.991 544.341 471.378C542.94 472.765 541.048 473.538 539.08 473.528Z" fill="white"/>
<path d="M546.552 232.311H382.184V234.618H546.552V232.311Z" fill="#CCCCCC"/>
<path d="M547.126 363.941H382.759V366.249H547.126V363.941Z" fill="#CCCCCC"/>
<path d="M436.207 124.005H433.908V474.681H436.207V124.005Z" fill="#CCCCCC"/>
<path d="M493.678 124.005H491.379V474.681H493.678V124.005Z" fill="#CCCCCC"/>
</g>
<defs>
<clipPath id="clip0_13_194">
<rect width="1000" height="600" fill="white"/>
</clipPath>
</defs>
</svg>
